<svg width="1360" height="548" viewBox="0 0 1360 548" fill="none" xmlns="http://www.w3.org/2000/svg">
<path d="M22.176 252L22.176 47.52L97.92 47.52C121.728 47.52 139.488 53.76 151.2 66.24C163.104 78.528 169.056 94.944 169.056 115.488C169.056 137.376 162.336 153.984 148.896 165.312C135.456 176.448 117.12 182.016 93.888 182.016L62.208 182.016L62.208 252H22.176ZM62.208 146.304L89.568 146.304C101.856 146.304 111.168 143.52 117.504 137.952C123.84 132.192 127.008 124.512 127.008 114.912C127.008 105.12 123.936 97.44 117.792 91.872C111.84 86.304 103.104 83.52 91.584 83.52H62.208L62.208 146.304ZM166.608 252L242.352 47.52L281.52 47.52L357.552 252H315.216L301.104 211.104L222.768 211.104L208.944 252H166.608ZM234.288 176.544L289.584 176.544L262.224 96.48H261.648L234.288 176.544ZM384.145 252L384.145 47.52L425.329 47.52L425.329 216L515.761 216V252L384.145 252ZM546.707 252V47.52L587.891 47.52V216L678.323 216V252L546.707 252ZM692.827 252L768.571 47.52L807.739 47.52L883.771 252H841.435L827.323 211.104L748.987 211.104L735.163 252H692.827ZM760.507 176.544L815.803 176.544L788.443 96.48H787.867L760.507 176.544ZM910.364 252V47.52L978.044 47.52C1010.11 47.52 1035.84 57.024 1055.23 76.032C1074.62 94.848 1084.32 119.52 1084.32 150.048C1084.32 180.576 1074.81 205.248 1055.8 224.064C1036.99 242.688 1011.36 252 978.908 252L910.364 252ZM950.396 216L976.316 216C995.9 216 1011.74 209.76 1023.84 197.28C1035.93 184.8 1041.98 169.056 1041.98 150.048C1041.98 130.848 1036.03 115.008 1024.12 102.528C1012.22 89.856 997.052 83.52 978.62 83.52H950.396V216Z" fill="white" fill-opacity="0.08"/>
<path d="M289.828 504L289.828 299.52H331.012L331.012 504H289.828ZM456.771 506.592C431.619 506.592 411.555 498.912 396.579 483.552C381.603 468.192 374.115 446.784 374.115 419.328V299.52H414.723V416.736C414.723 431.904 418.371 444.384 425.667 454.176C433.155 463.776 443.523 468.576 456.771 468.576C469.443 468.576 479.715 463.968 487.587 454.752C495.459 445.344 499.395 432.672 499.395 416.736V299.52H540.003V419.328C540.003 446.208 532.611 467.52 517.827 483.264C503.235 498.816 482.883 506.592 456.771 506.592ZM581.745 504V299.52H622.353L685.137 415.872H685.713L748.497 299.52L789.105 299.52V504H748.785V377.568H748.209L698.385 465.408H672.177L622.641 377.28H622.065V504H581.745ZM833.739 504V299.52H874.923V468H965.355V504H833.739ZM979.858 504L1055.6 299.52H1094.77L1170.8 504H1128.47L1114.35 463.104H1036.02L1022.19 504H979.858ZM1047.54 428.544H1102.83L1075.47 348.48H1074.9L1047.54 428.544ZM1197.39 504V299.52H1271.12C1292.82 299.52 1309.43 303.744 1320.95 312.192C1332.47 320.64 1338.23 333.024 1338.23 349.344C1338.23 359.328 1335.73 368.448 1330.74 376.704C1325.75 384.96 1317.97 391.104 1307.41 395.136V395.712C1320.66 398.976 1330.83 405.12 1337.94 414.144C1345.04 422.976 1348.59 434.112 1348.59 447.552C1348.59 464.448 1342.83 478.08 1331.31 488.448C1319.79 498.816 1303.09 504 1281.2 504L1197.39 504ZM1237.43 383.04L1267.95 383.04C1287.54 383.04 1297.33 375.072 1297.33 359.136C1297.33 343.2 1286.96 335.232 1266.23 335.232H1237.43V383.04ZM1237.43 468.288L1275.44 468.288C1285.23 468.288 1292.82 466.08 1298.19 461.664C1303.76 457.248 1306.55 450.816 1306.55 442.368C1306.55 434.112 1303.57 427.68 1297.62 423.072C1291.67 418.272 1282.93 415.872 1271.41 415.872L1237.43 415.872V468.288Z" fill="white" fill-opacity="0.08"/>
</svg>
