<svg width="320" height="431" viewBox="0 0 320 431" fill="none" xmlns="http://www.w3.org/2000/svg">
<path d="M23.48 208L23.48 37.6L86.6 37.6C106.44 37.6 121.24 42.8 131 53.2C140.92 63.44 145.88 77.12 145.88 94.24C145.88 112.48 140.28 126.32 129.08 135.76C117.88 145.04 102.6 149.68 83.24 149.68H56.84L56.84 208H23.48ZM56.84 119.92H79.64C89.88 119.92 97.64 117.6 102.92 112.96C108.2 108.16 110.84 101.76 110.84 93.76C110.84 85.6 108.28 79.2 103.16 74.56C98.2 69.92 90.92 67.6 81.32 67.6H56.84L56.84 119.92ZM143.84 208L206.96 37.6H239.6L302.96 208L267.68 208L255.92 173.92H190.64L179.12 208H143.84ZM200.24 145.12H246.32L223.52 78.4H223.04L200.24 145.12ZM325.121 208L325.121 37.6L359.441 37.6L359.441 178H434.801V208H325.121ZM460.589 208L460.589 37.6L494.909 37.6L494.909 178H570.269V208H460.589ZM582.356 208L645.476 37.6L678.116 37.6L741.476 208H706.196L694.436 173.92H629.156L617.636 208H582.356ZM638.756 145.12H684.836L662.036 78.4H661.556L638.756 145.12ZM763.636 208V37.6L820.036 37.6C846.756 37.6 868.196 45.52 884.356 61.36C900.516 77.04 908.596 97.6 908.596 123.04C908.596 148.48 900.676 169.04 884.836 184.72C869.156 200.24 847.796 208 820.756 208L763.636 208ZM796.996 178L818.596 178C834.916 178 848.116 172.8 858.196 162.4C868.276 152 873.316 138.88 873.316 123.04C873.316 107.04 868.356 93.84 858.436 83.44C848.516 72.88 835.876 67.6 820.516 67.6H796.996V178Z" fill="white" fill-opacity="0.08"/>
<path d="M-566.81 395V224.6H-532.49V395H-566.81ZM-427.691 397.16C-448.651 397.16 -465.371 390.76 -477.851 377.96C-490.331 365.16 -496.571 347.32 -496.571 324.44V224.6L-462.731 224.6V322.28C-462.731 334.92 -459.691 345.32 -453.611 353.48C-447.371 361.48 -438.731 365.48 -427.691 365.48C-417.131 365.48 -408.571 361.64 -402.011 353.96C-395.451 346.12 -392.171 335.56 -392.171 322.28V224.6H-358.331V324.44C-358.331 346.84 -364.491 364.6 -376.811 377.72C-388.971 390.68 -405.931 397.16 -427.691 397.16ZM-323.546 395L-323.546 224.6H-289.706L-237.386 321.56H-236.906L-184.586 224.6H-150.746L-150.746 395H-184.346L-184.346 289.64H-184.826L-226.346 362.84H-248.186L-289.466 289.4H-289.946L-289.946 395L-323.546 395ZM-113.551 395L-113.551 224.6H-79.2312L-79.2312 365H-3.87124V395H-113.551ZM8.215 395L71.335 224.6H103.975L167.335 395H132.055L120.295 360.92H55.015L43.495 395H8.215ZM64.615 332.12H110.695L87.895 265.4H87.415L64.615 332.12ZM189.496 395V224.6L250.936 224.6C269.016 224.6 282.856 228.12 292.456 235.16C302.056 242.2 306.856 252.52 306.856 266.12C306.856 274.44 304.776 282.04 300.616 288.92C296.456 295.8 289.976 300.92 281.176 304.28V304.76C292.216 307.48 300.696 312.6 306.616 320.12C312.536 327.48 315.496 336.76 315.496 347.96C315.496 362.04 310.696 373.4 301.096 382.04C291.496 390.68 277.576 395 259.336 395H189.496ZM222.856 294.2H248.296C264.616 294.2 272.776 287.56 272.776 274.28C272.776 261 264.136 254.36 246.856 254.36H222.856V294.2ZM222.856 365.24H254.536C262.696 365.24 269.016 363.4 273.496 359.72C278.136 356.04 280.456 350.68 280.456 343.64C280.456 336.76 277.976 331.4 273.016 327.56C268.056 323.56 260.776 321.56 251.176 321.56H222.856V365.24Z" fill="white" fill-opacity="0.08"/>
</svg>
