<svg width="166" height="28" viewBox="0 0 166 28" fill="none" xmlns="http://www.w3.org/2000/svg">
<path d="M0.772 27L0.772 1.44L10.24 1.44C13.216 1.44 15.436 2.22 16.9 3.78C18.388 5.316 19.132 7.368 19.132 9.936C19.132 12.672 18.292 14.748 16.612 16.164C14.932 17.556 12.64 18.252 9.736 18.252L5.776 18.252L5.776 27H0.772ZM5.776 13.788L9.196 13.788C10.732 13.788 11.896 13.44 12.688 12.744C13.48 12.024 13.876 11.064 13.876 9.864C13.876 8.64 13.492 7.68 12.724 6.984C11.98 6.288 10.888 5.94 9.448 5.94H5.776L5.776 13.788ZM29.9036 27.324C27.4556 27.324 25.4396 26.484 23.8556 24.804C22.2956 23.124 21.5156 20.94 21.5156 18.252C21.5156 15.612 22.2956 13.44 23.8556 11.736C25.4396 10.008 27.4196 9.144 29.7956 9.144C31.9796 9.144 33.7076 9.912 34.9796 11.448L35.0516 11.412V9.396H39.7676L39.7676 27H35.2676V24.912L35.1956 24.876C33.9236 26.508 32.1596 27.324 29.9036 27.324ZM30.8036 23.076C32.0516 23.076 33.1076 22.632 33.9716 21.744C34.8356 20.856 35.2676 19.704 35.2676 18.288C35.2676 16.872 34.8356 15.696 33.9716 14.76C33.1316 13.824 32.0756 13.356 30.8036 13.356C29.5076 13.356 28.4276 13.812 27.5636 14.724C26.7236 15.612 26.3036 16.8 26.3036 18.288C26.3036 19.704 26.7236 20.856 27.5636 21.744C28.4036 22.632 29.4836 23.076 30.8036 23.076ZM44.4662 27L44.4662 0.503998L49.1822 0.503998L49.1822 27H44.4662ZM54.3099 27L54.3099 0.503998L59.0259 0.503998L59.0259 27H54.3099ZM71.3177 27.324C68.8697 27.324 66.8537 26.484 65.2697 24.804C63.7097 23.124 62.9297 20.94 62.9297 18.252C62.9297 15.612 63.7097 13.44 65.2697 11.736C66.8537 10.008 68.8337 9.144 71.2097 9.144C73.3937 9.144 75.1217 9.912 76.3937 11.448L76.4657 11.412V9.396H81.1817V27H76.6817V24.912L76.6097 24.876C75.3377 26.508 73.5737 27.324 71.3177 27.324ZM72.2177 23.076C73.4657 23.076 74.5217 22.632 75.3857 21.744C76.2497 20.856 76.6817 19.704 76.6817 18.288C76.6817 16.872 76.2497 15.696 75.3857 14.76C74.5457 13.824 73.4897 13.356 72.2177 13.356C70.9217 13.356 69.8417 13.812 68.9777 14.724C68.1377 15.612 67.7177 16.8 67.7177 18.288C67.7177 19.704 68.1377 20.856 68.9777 21.744C69.8177 22.632 70.8977 23.076 72.2177 23.076ZM93.0802 27.324C90.6322 27.324 88.6162 26.484 87.0322 24.804C85.4482 23.124 84.6562 20.94 84.6562 18.252C84.6562 15.612 85.4482 13.44 87.0322 11.736C88.6162 10.008 90.5962 9.144 92.9722 9.144C95.2042 9.144 96.9802 9.912 98.3002 11.448H98.3722V0.503998L103.052 0.503998V27H98.5522V24.84H98.5162C97.2442 26.496 95.4322 27.324 93.0802 27.324ZM90.7042 21.744C91.5442 22.632 92.6242 23.076 93.9442 23.076C95.2642 23.076 96.3562 22.632 97.2202 21.744C98.1082 20.856 98.5522 19.704 98.5522 18.288C98.5522 16.872 98.1202 15.696 97.2562 14.76C96.3922 13.824 95.2882 13.356 93.9442 13.356C92.6482 13.356 91.5682 13.812 90.7042 14.724C89.8642 15.612 89.4442 16.8 89.4442 18.288C89.4442 19.68 89.8642 20.832 90.7042 21.744ZM110.37 7.02C109.506 7.02 108.786 6.744 108.21 6.192C107.658 5.616 107.382 4.92 107.382 4.104C107.382 3.312 107.658 2.64 108.21 2.088C108.786 1.512 109.506 1.224 110.37 1.224C111.21 1.224 111.918 1.512 112.494 2.088C113.07 2.64 113.358 3.312 113.358 4.104C113.358 4.92 113.07 5.616 112.494 6.192C111.918 6.744 111.21 7.02 110.37 7.02ZM107.958 27V9.396H112.674V27L107.958 27ZM123.742 27.324C119.422 27.324 117.262 24.888 117.262 20.016V9.396L121.942 9.396V18.792C121.942 20.376 122.182 21.492 122.662 22.14C123.166 22.764 123.982 23.076 125.11 23.076C126.19 23.076 127.102 22.632 127.846 21.744C128.614 20.832 128.998 19.572 128.998 17.964V9.396H133.75V27H128.998V24.912L128.926 24.876C127.582 26.508 125.854 27.324 123.742 27.324ZM138.293 27V9.396L143.009 9.396V11.7H143.045C144.461 9.996 146.213 9.144 148.301 9.144C150.749 9.144 152.477 10.068 153.485 11.916H153.557C154.997 10.068 157.049 9.144 159.713 9.144C163.841 9.144 165.905 11.7 165.905 16.812V27H161.189V17.928C161.189 14.88 160.169 13.356 158.129 13.356C157.097 13.356 156.233 13.788 155.537 14.652C154.865 15.492 154.529 16.68 154.529 18.216V27L149.813 27V17.928C149.813 14.88 148.781 13.356 146.717 13.356C145.613 13.356 144.713 13.788 144.017 14.652C143.345 15.492 143.009 16.68 143.009 18.216V27H138.293Z" fill="white"/>
</svg>
