<svg width="156" height="6" viewBox="0 0 156 6" fill="none" xmlns="http://www.w3.org/2000/svg">
<path d="M2.29297 2.29286C4.34035 0.24548 7.6598 0.24548 9.70718 2.29286C10.9735 3.55919 13.0266 3.55919 14.293 2.29286C16.3403 0.24548 19.6598 0.24548 21.7072 2.29286C22.9735 3.55919 25.0266 3.55919 26.293 2.29286C28.3403 0.24548 31.6598 0.24548 33.7072 2.29286C34.9735 3.55919 37.0266 3.55919 38.293 2.29286C40.3403 0.24548 43.6598 0.24548 45.7072 2.29286C46.9735 3.55919 49.0266 3.55919 50.293 2.29286C52.3403 0.24548 55.6598 0.24548 57.7072 2.29286C58.9735 3.55919 61.0266 3.55919 62.293 2.29286C64.3403 0.24548 67.6598 0.24548 69.7072 2.29286C70.9735 3.55919 73.0266 3.55919 74.293 2.29286C76.3403 0.24548 79.6598 0.24548 81.7072 2.29286C82.9735 3.55919 85.0266 3.55919 86.293 2.29286C88.3403 0.24548 91.6598 0.24548 93.7072 2.29286C94.9735 3.55919 97.0266 3.55919 98.293 2.29286C100.34 0.24548 103.66 0.24548 105.707 2.29286C106.974 3.55919 109.027 3.55919 110.293 2.29286C112.34 0.24548 115.66 0.24548 117.707 2.29286C118.974 3.55919 121.027 3.55919 122.293 2.29286C124.34 0.24548 127.66 0.24548 129.707 2.29286C130.974 3.55919 133.027 3.55919 134.293 2.29286C136.34 0.24548 139.66 0.24548 141.707 2.29286C142.974 3.55919 145.027 3.55919 146.293 2.29286C148.34 0.24548 151.66 0.24548 153.707 2.29286C154.34 2.926 155.17 3.24259 156 3.2426V5.2426C154.658 5.24259 153.317 4.73074 152.293 3.70707C151.027 2.44074 148.974 2.44074 147.707 3.70707C145.66 5.75445 142.34 5.75445 140.293 3.70707C139.027 2.44074 136.974 2.44074 135.707 3.70707C133.66 5.75445 130.34 5.75445 128.293 3.70707C127.027 2.44074 124.974 2.44074 123.707 3.70707C121.66 5.75445 118.34 5.75445 116.293 3.70707C115.027 2.44074 112.974 2.44074 111.707 3.70707C109.66 5.75445 106.34 5.75445 104.293 3.70707C103.027 2.44074 100.974 2.44074 99.7072 3.70707C97.6598 5.75445 94.3403 5.75445 92.293 3.70707C91.0266 2.44074 88.9735 2.44074 87.7072 3.70707C85.6598 5.75445 82.3403 5.75445 80.293 3.70707C79.0266 2.44074 76.9735 2.44074 75.7072 3.70707C73.6598 5.75445 70.3403 5.75445 68.293 3.70707C67.0266 2.44074 64.9735 2.44074 63.7072 3.70707C61.6598 5.75445 58.3403 5.75445 56.293 3.70707C55.0266 2.44074 52.9735 2.44074 51.7072 3.70707C49.6598 5.75445 46.3403 5.75445 44.293 3.70707C43.0266 2.44074 40.9735 2.44074 39.7072 3.70707C37.6598 5.75445 34.3403 5.75445 32.293 3.70707C31.0266 2.44074 28.9735 2.44074 27.7072 3.70707C25.6598 5.75445 22.3403 5.75445 20.293 3.70707C19.0266 2.44074 16.9735 2.44074 15.7072 3.70707C13.6598 5.75445 10.3403 5.75445 8.29297 3.70707C7.02664 2.44074 4.97351 2.44074 3.70718 3.70707C2.68347 4.73078 1.34173 5.24262 0 5.24261V3.24261C0.829889 3.24262 1.65978 2.92604 2.29297 2.29286Z" fill="white"/>
</svg>
